<svg width="18" height="18" viewBox="0 0 18 18" fill="none" xmlns="http://www.w3.org/2000/svg">
<path d="M2.96229 16.722L3.31585 17.0755L3.6694 16.722L9.21058 11.1808L14.7518 16.722L15.1053 17.0755L15.4589 16.722L16.9326 15.2483L17.2861 14.8947L16.9326 14.5412L11.3914 9L16.9326 3.45882L17.2861 3.10526L16.9326 2.75171L15.4589 1.27803L15.1053 0.924474L14.7518 1.27803L9.21058 6.81921L3.6694 1.27803L3.31585 0.924474L2.96229 1.27803L1.48861 2.75171L1.13506 3.10526L1.48861 3.45882L7.02979 9L1.48861 14.5412L1.13506 14.8947L1.48861 15.2483L2.96229 16.722Z" fill="#E8EAED" stroke="#E8EAED"/>
</svg>
