<svg width="18" height="21" viewBox="0 0 18 21" fill="none" xmlns="http://www.w3.org/2000/svg">
<path d="M16.6 20.1064L10.3 13.4043C9.8 13.8298 9.225 14.1667 8.575 14.4149C7.925 14.6631 7.23333 14.7872 6.5 14.7872C4.68333 14.7872 3.14583 14.1179 1.8875 12.7793C0.629167 11.4406 0 9.80497 0 7.87234C0 5.93972 0.629167 4.30408 1.8875 2.96543C3.14583 1.62677 4.68333 0.957447 6.5 0.957447C8.31667 0.957447 9.85417 1.62677 11.1125 2.96543C12.3708 4.30408 13 5.93972 13 7.87234C13 8.65248 12.8833 9.3883 12.65 10.0798C12.4167 10.7713 12.1 11.383 11.7 11.9149L18 18.617L16.6 20.1064ZM6.5 12.6596C7.75 12.6596 8.8125 12.1941 9.6875 11.2633C10.5625 10.3324 11 9.20213 11 7.87234C11 6.54255 10.5625 5.41223 9.6875 4.48138C8.8125 3.55053 7.75 3.08511 6.5 3.08511C5.25 3.08511 4.1875 3.55053 3.3125 4.48138C2.4375 5.41223 2 6.54255 2 7.87234C2 9.20213 2.4375 10.3324 3.3125 11.2633C4.1875 12.1941 5.25 12.6596 6.5 12.6596Z" fill="#8000FF"/>
<path d="M16.6 20.1064L10.3 13.4043C9.8 13.8298 9.225 14.1667 8.575 14.4149C7.925 14.6631 7.23333 14.7872 6.5 14.7872C4.68333 14.7872 3.14583 14.1179 1.8875 12.7793C0.629167 11.4406 0 9.80497 0 7.87234C0 5.93972 0.629167 4.30408 1.8875 2.96543C3.14583 1.62677 4.68333 0.957447 6.5 0.957447C8.31667 0.957447 9.85417 1.62677 11.1125 2.96543C12.3708 4.30408 13 5.93972 13 7.87234C13 8.65248 12.8833 9.3883 12.65 10.0798C12.4167 10.7713 12.1 11.383 11.7 11.9149L18 18.617L16.6 20.1064ZM6.5 12.6596C7.75 12.6596 8.8125 12.1941 9.6875 11.2633C10.5625 10.3324 11 9.20213 11 7.87234C11 6.54255 10.5625 5.41223 9.6875 4.48138C8.8125 3.55053 7.75 3.08511 6.5 3.08511C5.25 3.08511 4.1875 3.55053 3.3125 4.48138C2.4375 5.41223 2 6.54255 2 7.87234C2 9.20213 2.4375 10.3324 3.3125 11.2633C4.1875 12.1941 5.25 12.6596 6.5 12.6596Z" fill="white" fill-opacity="0.67"/>
</svg>
