<svg width="29" height="27" viewBox="0 0 29 27" fill="none" xmlns="http://www.w3.org/2000/svg">
<path d="M14.5 13.5C12.6208 13.5 11.0122 12.8635 9.67396 11.5906C8.33576 10.3177 7.66667 8.7875 7.66667 7C7.66667 5.2125 8.33576 3.68229 9.67396 2.40937C11.0122 1.13646 12.6208 0.5 14.5 0.5C16.3792 0.5 17.9878 1.13646 19.326 2.40937C20.6642 3.68229 21.3333 5.2125 21.3333 7C21.3333 8.7875 20.6642 10.3177 19.326 11.5906C17.9878 12.8635 16.3792 13.5 14.5 13.5ZM0.833332 26.5V21.95C0.833332 21.0292 1.08246 20.1828 1.58073 19.4109C2.07899 18.6391 2.74097 18.05 3.56667 17.6437C5.33194 16.8042 7.12569 16.1745 8.94792 15.7547C10.7701 15.3349 12.6208 15.125 14.5 15.125C16.3792 15.125 18.2299 15.3349 20.0521 15.7547C21.8743 16.1745 23.6681 16.8042 25.4333 17.6437C26.259 18.05 26.921 18.6391 27.4193 19.4109C27.9175 20.1828 28.1667 21.0292 28.1667 21.95V26.5H0.833332Z" fill="#DB7093"/>
</svg>
